<?xml version="1.0" encoding="utf-8"?>
<!-- Generator: Adobe Illustrator 23.0.3, SVG Export Plug-In . SVG Version: 6.00 Build 0)  -->
<svg version="1.1" id="Group_288" xmlns="http://www.w3.org/2000/svg" xmlns:xlink="http://www.w3.org/1999/xlink" x="0px" y="0px"
	 viewBox="0 0 700 435.8" style="enable-background:new 0 0 700 435.8;" xml:space="preserve">
<style type="text/css">
	.st0{fill:#898989;}
</style>
<g>
	<path class="st0" d="M288.4,25.5c22.8,13.8,43.3,32.7,62.2,51.2c16.9,16.6,36.1,36.6,50.2,60c4.3,7.2,7.9,14.4,11,21.7h2.6
		c-13.3-32.4-37.2-59-62.1-83.4c-26.7-26.1-54.1-50.4-86.6-63.5c-3.8-1.6-7.7-3-11.7-4.2c-1.3-0.4-2.7-0.7-4-1.1
		c-2.2-0.6-4.5-1.1-6.8-1.6L243,6.8C258.4,10.3,273.4,16.5,288.4,25.5z"/>
	<path class="st0" d="M374.1,341.5c-25.4,27.1-60,49.7-112.3,73.1c-15.2,6.8-31.3,10.2-47.8,10.2c-25.1,0-51.2-7.5-80-23
		c-24.3-13.1-45.9-29.6-61.7-41.6c-4.9-3.7-9.4-7.2-13.4-10.1c-49.8-36-54.5-66.3-54.5-137.4c0-47.8,17.6-97.5,48.3-136.3
		c15.1-19.1,33.6-34.7,55.1-46.7l-1.1-2.2C85.1,39.7,66.2,55.6,50.9,75c-3.9,4.9-7.5,9.9-10.9,15.1c-2.6,3.9-4.9,7.9-7.2,11.9
		c-0.7,1.2-1.5,2.4-2.2,3.6c-5,9.1-9.3,18.6-13.1,28.3c-0.8,2-1.6,3.9-2.4,5.9c0,0.1-0.1,0.3-0.1,0.4C6.8,163.4,2.4,187.9,2,212.8
		c0,4.4,0,8.7,0.1,12.8c0.5,46.4,4.6,74.9,26.7,100.9c7.4,8.7,16.7,17,28.7,25.7c0.1,0.1,0.3,0.2,0.4,0.3c1.5,1.1,3.2,2.3,4.9,3.6
		c0.5,0.4,1,0.8,1.5,1.1c1.9,1.4,3.9,3,6,4.6c1.5,1.1,3.1,2.4,4.7,3.6c0.9,0.7,1.8,1.4,2.8,2.1c2,1.5,4,3,6.1,4.6
		c0.8,0.6,1.6,1.2,2.4,1.8c2,1.5,4.1,3,6.3,4.6c0.8,0.6,1.5,1.1,2.3,1.7c1.9,1.4,3.9,2.7,5.9,4.1c0.9,0.6,1.8,1.3,2.8,1.9
		c2.4,1.6,4.8,3.2,7.3,4.9c0.9,0.6,1.9,1.2,2.9,1.8c2,1.3,4.1,2.6,6.2,3.8c0.9,0.5,1.7,1.1,2.6,1.6c2.6,1.6,5.3,3.1,8,4.6
		c1.1,0.6,2.2,1.2,3.3,1.8c2.8,1.5,5.6,2.9,8.4,4.3c0.9,0.4,1.8,0.8,2.7,1.3c2.3,1.1,4.7,2.2,7.1,3.2c1.1,0.5,2.1,0.9,3.2,1.4
		c3,1.2,6,2.4,9,3.4c1.1,0.4,2.2,0.7,3.3,1.1c2.7,0.9,5.4,1.8,8.2,2.5c0.9,0.2,1.8,0.5,2.7,0.7c3,0.8,6.1,1.5,9.2,2.1
		c1.1,0.2,2.2,0.4,3.3,0.6c3.3,0.6,6.6,1.1,9.9,1.4c0.9,0.1,1.8,0.1,2.6,0.2c2.9,0.2,5.9,0.4,8.8,0.4c0.9,0,1.7,0.1,2.6,0
		c3.3,0,6.7-0.2,10-0.5c1-0.1,2-0.2,2.9-0.3c3-0.3,6.1-0.8,9.1-1.4c0.6-0.1,1.2-0.2,1.8-0.3c3.5-0.7,7-1.7,10.5-2.8
		c0.9-0.3,1.8-0.6,2.7-0.9c3.6-1.2,7.2-2.6,10.9-4.2c0,0,0,0,0,0c0.6-0.3,1.2-0.6,1.8-0.8c69.7-31.5,134-72.9,154.1-150.2h-2.4
		C408.9,294.3,394.9,319.4,374.1,341.5z"/>
	<path class="st0" d="M201.2,1.5c-13.4,0.7-26.3,2.5-38.8,5.3c-1.2,0.3-2.3,0.6-3.4,0.9l0.6,2.3c17.2-4.1,35.3-6.3,54.2-6.3
		c1.8,0,3.7,0.1,5.5,0.2l0.1-2.4c-1.8-0.1-3.7-0.2-5.6-0.2C209.5,1.1,205.3,1.3,201.2,1.5z"/>
</g>
<g>
	<path class="st0" d="M359.1,314.3c-51.8,73.9-95.2,72.7-150.1,71.3c-2.3-0.1-4.6-0.1-7-0.2c-10.8-0.3-32.4-7.1-57.9-18.2
		c-25.1-11-49.5-24.2-65.4-35.3c-2.5-1.7-4.8-3.4-6.8-5c-22-17.5-22.1-31.2-22.2-44.5c-0.1-6.3-0.1-12.7-2.4-19.4
		c-8.5-24.5-10.6-49.8-6.4-75.2c4.3-25.5,14.9-50.5,31.6-74.3c13.7-19.6,32.2-36.6,53.2-49.6l-1.1-2.1c-3.3,2-6.6,4.1-9.8,6.3
		c0,0-0.1,0-0.1,0.1c-1.2,0.8-2.2,1.7-3.4,2.6C95.8,82.3,82,96.1,70.5,112.1c-5.3,7.5-9.8,15.1-13.9,22.8
		C34.5,176.9,30.3,221.5,45,263.7c7,20.1-7.8,38.6,25.4,65c0,0,0.1,0.1,0.1,0.1c1.9,1.5,4.1,3.1,6.4,4.7c1.8,1.2,3.7,2.5,5.6,3.8
		c0.4,0.3,0.7,0.5,1.1,0.8c4.9,3.2,10.3,6.4,16.1,9.7c0.6,0.3,1.1,0.6,1.7,0.9c2.3,1.3,4.6,2.6,7,3.8c0.9,0.5,1.8,0.9,2.7,1.4
		c2.1,1.1,4.3,2.2,6.4,3.3c1,0.5,2.1,1,3.1,1.5c2.1,1,4.1,2,6.2,3c1.1,0.5,2.3,1.1,3.4,1.6c2,0.9,4,1.9,6,2.8
		c1.2,0.6,2.4,1.1,3.6,1.6c1.9,0.9,3.8,1.7,5.8,2.5c1.2,0.5,2.5,1.1,3.7,1.6c1.9,0.8,3.7,1.5,5.5,2.3c1.2,0.5,2.4,1,3.7,1.5
		c1.8,0.7,3.5,1.4,5.3,2c1.2,0.4,2.4,0.9,3.5,1.3c1.7,0.6,3.4,1.2,5.1,1.8c1.1,0.4,2.2,0.8,3.3,1.1c1.6,0.5,3.2,1,4.8,1.5
		c1,0.3,2,0.6,3,0.9c1.6,0.4,3.1,0.8,4.6,1.2c0.8,0.2,1.7,0.4,2.5,0.6c1.6,0.4,3.1,0.6,4.5,0.9c0.6,0.1,1.2,0.2,1.7,0.3
		c1.9,0.3,3.7,0.5,5.3,0.5c3.6,0.1,7.2,0.2,10.7,0.3c42.7,1.1,79.2,0.9,118.4-36.7c1.6-1.6,3.3-3.2,4.9-4.9
		c8.2-8.5,16.5-18.7,25.1-30.9c0,0,0,0,0,0c3.3-4.7,6.3-9.5,9.1-14.4c0.1-0.2,0.3-0.4,0.4-0.7c2.7-4.8,5.1-9.7,7.3-14.6
		c0.2-0.4,0.4-0.8,0.6-1.2c2.1-4.9,4-9.8,5.6-14.8c0.2-0.5,0.4-1.1,0.6-1.6c0.3-0.8,0.4-1.6,0.7-2.4h-2.5
		C377.4,283,369.5,299.4,359.1,314.3z"/>
	<path class="st0" d="M170.3,41c-0.9,0.3-1.8,0.6-2.7,0.9l0.6,2.4c0.9-0.3,1.8-0.7,2.7-0.9c15.5-4.6,31.2-5.8,47.4-3.6l0.1-2.5
		C202.6,35.2,186.7,36.1,170.3,41z"/>
	<path class="st0" d="M239.9,44.5c20.7,6.4,42.4,17.8,68.2,36c22.9,16,39.2,30.3,51.4,44.9c8.9,10.6,15.7,21.6,20.6,33.1h2.7
		c-1.1-2.6-2.2-5.1-3.4-7.5c-2.3-4.6-4.9-9-7.6-13.2c-0.2-0.3-0.4-0.6-0.5-0.9c-10.3-15.5-23.9-29-39.4-41.6c-0.3-0.3-0.7-0.6-1-0.8
		c-4.1-3.3-8.4-6.5-12.7-9.7c-0.9-0.7-1.9-1.4-2.8-2c-1.9-1.4-3.9-2.8-5.9-4.2c-23.9-16.7-47.4-30-71.2-36.9L238,44
		C238.7,44.1,239.3,44.3,239.9,44.5z"/>
</g>
<g>
	<path class="st0" d="M261.5,93.5c14.6,8.8,27.8,21,40,32.9c9.2,9,19.4,19.8,27.9,32h3.1c-8.3-12.3-18.6-23.3-29.3-33.8
		c-20.9-20.5-42.4-39.2-69.8-45.4l-0.4,2.6C242.6,84.1,252,87.8,261.5,93.5z"/>
	<path class="st0" d="M316.6,296c-16.3,17.4-38.6,31.9-72.2,47c-11,4.9-22,7.5-32.7,7.5c-28.7,0-50.5-17.6-68-31.8
		c-4-3.2-7.8-6.3-11.3-8.9c-9.8-7.1-18.4-11.3-26.1-15.1c-18-8.8-28-13.7-28-44.5c0-16.4,3.5-41.9,9-65
		c6.5-27.4,14.7-48.4,23.2-59.1c9.1-11.5,20.2-21,33-28.5l-1.1-2c-12.7,7.6-24.2,17.3-33.8,29c0,0,0,0,0,0c-0.8,0.9-1.5,2.1-2.2,3.2
		c-0.5,0.7-0.9,1.2-1.4,1.9c-2.4,3.9-4.7,8.5-6.9,13.5c-12.5,28.8-20.8,73.6-22,100.6c-0.1,2.3-0.2,4.4-0.2,6.4c0,8,0.7,14.3,2,19.5
		c0.1,0.3,0.1,0.7,0.2,1.1c4.9,17.7,17.6,21,35.2,30.2c5.4,2.8,11.3,6.2,17.6,10.8c0.1,0,0.1,0.1,0.2,0.1c1.3,1,2.7,2,4,3.1
		c0.5,0.4,1.1,0.9,1.6,1.3c1,0.8,2,1.6,3,2.4c1.7,1.4,3.5,2.9,5.4,4.3c0.2,0.1,0.3,0.2,0.4,0.4c1.7,1.4,3.5,2.8,5.3,4.2
		c0.3,0.2,0.6,0.4,0.8,0.6c1.5,1.1,2.9,2.2,4.5,3.4c0.5,0.4,1.1,0.8,1.6,1.1c1.4,1,2.8,2,4.3,3c0.5,0.3,1,0.7,1.6,1
		c3.9,2.6,8,5,12.3,7.2c0.5,0.3,1.1,0.5,1.7,0.8c1.6,0.8,3.3,1.5,5,2.2c0.7,0.3,1.3,0.5,2,0.8c1.8,0.7,3.7,1.3,5.6,1.9
		c0.5,0.1,1,0.3,1.5,0.5c2.4,0.7,4.9,1.3,7.4,1.7c0.4,0.1,0.9,0.1,1.3,0.2c2.1,0.3,4.2,0.6,6.3,0.7c0.8,0.1,1.6,0.1,2.3,0.1
		c1.8,0.1,3.6,0,5.5,0c1.1,0,2.2-0.1,3.3-0.2c1.8-0.2,3.7-0.4,5.6-0.7c1.1-0.2,2.1-0.3,3.2-0.5c2.1-0.4,4.3-1,6.5-1.7
		c0.9-0.3,1.8-0.4,2.7-0.7c3.1-1,6.3-2.2,9.6-3.7c39.7-17.8,76.7-40.5,94.2-79.4H337C332,276.7,325.2,286.8,316.6,296z"/>
	<path class="st0" d="M213.7,77c-12.6,0-24.6,1.6-36,4.4l0.6,2.3c11.3-2.8,23-4.3,35.4-4.3c1.3,0,2.5,0.2,3.8,0.3l0.1-2.6
		C216.2,77.1,215,77,213.7,77C213.7,77,213.7,77,213.7,77z"/>
</g>
<g>
	<path class="st0" d="M249.1,124.6c10.9,6.6,20.8,15.7,29.8,24.5c3,3,6,6.1,9,9.3h3.3c-3.4-3.8-7-7.5-10.6-11
		c-9.1-8.9-18.4-17.3-28.6-23.8c-0.6-0.4-1.1-0.8-1.7-1.1c-0.5-0.3-0.9-0.5-1.4-0.8c-6.3-3.7-13-6.4-20.2-8.1l-0.3,2.4
		C235.4,117.7,242.3,120.4,249.1,124.6z"/>
	<path class="st0" d="M186.3,115.1l0.6,2.3c8.5-2.1,17.4-3.3,26.8-3.3c1,0,2,0.2,3,0.2l0.1-2.4c-1,0-2-0.2-3.1-0.2
		C204.1,111.7,195,113,186.3,115.1z"/>
	<path class="st0" d="M290.2,275.2c-12.1,13-28.7,23.8-53.8,35c-8.2,3.7-16.3,5.5-24.2,5.5c-21.3,0-37.5-13.1-50.5-23.6
		c-3-2.4-5.9-4.7-8.5-6.7c-7.1-5.2-14.2-8.7-20.3-11.9c-15.7-8-26-13.2-26-36.2c0-23.6,16-70.8,30.1-88.6c6.4-8.1,14-14.8,22.8-20.2
		l-1-2c-8.8,5.5-16.9,12.4-23.6,20.6c0,0,0,0-0.1,0.1c-14.5,18.4-30.6,66.1-30.6,90.1c0,33.4,21.8,32.3,45.8,49c0.5,0.4,1,0.7,1.5,1
		c0.1,0.1,0.2,0.1,0.2,0.2c0.9,0.7,1.9,1.4,2.9,2.2c0.4,0.3,0.8,0.7,1.2,1c0.7,0.6,1.5,1.2,2.2,1.8c1.4,1.1,2.8,2.3,4.3,3.5
		c0,0,0,0,0.1,0.1c1.3,1,2.6,2.1,4,3.1c0.2,0.1,0.4,0.3,0.5,0.4c1.1,0.9,2.3,1.7,3.4,2.6c0.4,0.3,0.7,0.5,1.1,0.8
		c1.1,0.8,2.2,1.5,3.3,2.3c0.4,0.3,0.7,0.5,1.1,0.8c2.9,1.9,6,3.7,9.2,5.4c0.4,0.2,0.8,0.4,1.2,0.6c1.2,0.6,2.5,1.2,3.8,1.7
		c0.5,0.2,1,0.4,1.5,0.6c1.4,0.5,2.8,1,4.2,1.4c0.4,0.1,0.7,0.2,1.1,0.3c1.8,0.5,3.6,0.9,5.5,1.3c0.3,0.1,0.7,0.1,1,0.1
		c1.5,0.2,3.1,0.4,4.7,0.5c0.6,0,1.2,0.1,1.8,0.1c1.3,0.1,2.7,0,4.1,0c0.8,0,1.6-0.1,2.5-0.1c1.4-0.1,2.7-0.3,4.1-0.5
		c0.8-0.1,1.6-0.2,2.4-0.4c1.6-0.3,3.2-0.8,4.8-1.2c0.7-0.2,1.4-0.4,2.1-0.6c2.3-0.8,4.7-1.7,7.2-2.8c25-11.2,48.7-25.1,63.4-46.6
		h-3C295.5,269.1,293,272.2,290.2,275.2z"/>
</g>
<g>
	<path class="st0" d="M243.8,158.4h5.1c-2.7-1.7-5.5-3-8.4-4c-5.5-2-11.1-2.8-16.8-2.9l-0.3,2.4
		C230.2,153.9,237.1,155.1,243.8,158.4z"/>
	<path class="st0" d="M200.5,154.4c-1.3,0.3-2.7,0.6-4,0.9l0.6,2.4c1.3-0.3,2.6-0.6,3.9-0.9c4.7-1.1,9.7-2,14.7-2.5l0.1-2.4
		c-3.7,0.4-7.4,0.9-11,1.7C203.4,153.7,201.9,154,200.5,154.4z"/>
	<path class="st0" d="M237.2,269.9c-2.4,0.8-4.7,1.5-6.7,2.3c-20.1,7.8-36.3,6.6-52.3-3.8c-12.3-8-22.2-20.9-27-35.3
		c-5.9-17.4-3-36.4,8.2-53.5c4.9-7.6,11.5-12.4,18.9-15.8l-1.1-2.1c-5.9,2.8-11.4,6.3-15.9,11.4c-1.4,1.6-2.8,3.3-4,5.2
		c-5.7,8.8-9.3,18.1-10.7,27.4c-1.3,9.4-0.6,19,2.3,28.3c1.2,3.7,2.8,7.2,4.6,10.7c0.1,0.1,0.2,0.3,0.3,0.4c1.8,3.3,3.8,6.5,6.1,9.5
		c0,0,0,0,0.1,0.1c4.7,6.1,10.4,11.5,17,15.9c2.3,1.5,4.5,2.7,6.7,3.8c1.7,0.8,3.4,1.5,5.2,2.2c0.3,0.1,0.7,0.3,1.1,0.4
		c4,1.4,8.1,2.2,12.2,2.6c0.7,0.1,1.3,0.2,2,0.2c0.2,0,0.5,0,0.7,0c8.8,0.3,17.6-1.7,26.7-5.2c3.9-1.5,8.9-2.9,14.1-4.8c0,0,0,0,0,0
		c1.7-0.6,3.4-1.3,5.1-2.1c0.1-0.1,0.3-0.1,0.4-0.2c1-0.5,2.1-1,3.1-1.6h-5.6C244.7,267.5,240.8,268.8,237.2,269.9z"/>
</g>
<path id="Path_341" class="st0" d="M219.7,246c15.7,0,26.9-13.6,26.9-34.5s-11.2-34.2-26.9-34.2s-27,13.2-27,34.2S204,246,219.7,246
	z M219.7,242.8c-14,0-23.4-12.3-23.4-31.3s9.4-31,23.4-31s23.4,12,23.4,31S233.7,242.8,219.7,242.8z M317.2,244.8h3.2v-45.8
	c0-5.2-0.2-12-0.5-17.4h0.4l5.2,14.6l15,41.2h3.6l14.9-41.2l5.1-14.6h0.4c-0.2,5.4-0.4,12.1-0.4,17.4v45.8h3.4v-66.3H362l-14.2,40
	c-1.7,4.9-3.4,10-5.2,15h-0.4c-1.8-5-3.7-10-5.5-15l-14.2-40h-5.4L317.2,244.8z M442.3,244.8h18.5c15.1,0,24.6-6.7,24.6-19.3
	c0.3-8.4-6.2-15.6-14.6-16.1V209c6.5-1.7,10.9-7.7,10.5-14.4c0-11-8.4-16.1-21.6-16.1h-17.4V244.8z M445.7,207.9v-26.5h12.6
	c12.8,0,19.5,3.6,19.5,13.3c0,8.2-5.7,13.2-20.1,13.2H445.7z M445.7,241.8v-30.9h14c14.2,0,22.4,4.7,22.4,14.8
	c0,11.1-8.6,16.1-22.4,16.1H445.7z M558.2,210.6v-29.1H572c12.1,0,18.9,3.7,18.9,14.1s-6.8,15.1-18.9,15.1L558.2,210.6z
	 M595.5,244.8l-18.7-31.4c11-1.1,17.7-7.1,17.7-17.8c0-12.2-8.3-17.1-21.4-17.1h-18.4v66.3h3.4v-31.2h14.7l18.7,31.2H595.5z
	 M663.4,244.8H700v-3h-33.3v-30.9h27v-3h-27v-26.4H699v-3h-35.6L663.4,244.8z"/>
</svg>
