<svg id="_001-instagram" data-name="001-instagram" xmlns="http://www.w3.org/2000/svg" width="20" height="20" viewBox="0 0 20 20">
  <g id="Group_289" data-name="Group 289">
    <g id="Group_288" data-name="Group 288">
      <path id="Path_341" data-name="Path 341" d="M13.75,0H6.25A6.251,6.251,0,0,0,0,6.25v7.5A6.251,6.251,0,0,0,6.25,20h7.5A6.251,6.251,0,0,0,20,13.75V6.25A6.251,6.251,0,0,0,13.75,0Zm4.375,13.75a4.38,4.38,0,0,1-4.375,4.375H6.25A4.38,4.38,0,0,1,1.875,13.75V6.25A4.38,4.38,0,0,1,6.25,1.875h7.5A4.38,4.38,0,0,1,18.125,6.25Z" fill="#898989"/>
    </g>
  </g>
  <g id="Group_291" data-name="Group 291" transform="translate(5 5)">
    <g id="Group_290" data-name="Group 290">
      <path id="Path_342" data-name="Path 342" d="M133,128a5,5,0,1,0,5,5A5,5,0,0,0,133,128Zm0,8.125A3.125,3.125,0,1,1,136.125,133,3.129,3.129,0,0,1,133,136.125Z" transform="translate(-128 -128)" fill="#898989"/>
    </g>
  </g>
  <g id="Group_293" data-name="Group 293" transform="translate(14.709 3.959)">
    <g id="Group_292" data-name="Group 292">
      <circle id="Ellipse_8" data-name="Ellipse 8" cx="0.666" cy="0.666" r="0.666" fill="#898989"/>
    </g>
  </g>
</svg>
